<svg xmlns="http://www.w3.org/2000/svg" viewBox="0 0 321.82 57.75"><defs><style>.cls-1{fill:none;stroke:#fff;stroke-width:0.6px;}.cls-2{fill:#fff;}.cls-3{fill:#e31837;}</style></defs><title>Professional and OnlineRW</title><g id="Layer_3" data-name="Layer 3"><line class="cls-1" x1="186.09" y1="12.09" x2="186.09" y2="45.68"/><path class="cls-2" d="M209.09,22.6l4-.15c5.35-.2,5.75,2.67,5.75,3.38,0,2.55-2.54,3.46-4.67,3.7l-.06-.27c1.66-.26,2.87-1.12,2.87-2.94,0-2.37-2-3.45-4.13-3.43v9c0,2,0,2.38,2.43,2.72v.28H209v-.28c2.19-.29,2.21-.84,2.27-2.72V26.25c0-2.49,0-3.27-2.14-3.38Z" transform="translate(-13.1 -10.22)"/><path class="cls-2" d="M222,27.31c0-2.45-.08-2.82-1.88-3v-.22l3.91-.13c4-.13,4.35,1.84,4.35,2.61a2.8,2.8,0,0,1-2,2.62l.08.12c1.23,2.16,2.77,4.91,5.41,5.46l-.05.23c-1.7-.08-2.95,0-3.87-1a14,14,0,0,1-2.23-3.2c-.64-1.33-1.21-.94-2.34-1.14v2.58c0,1.76,0,2.08,2.23,2.39v.24h-5.62v-.24c1.92-.26,1.94-.74,2-2.39Zm1.4,2.11c1.54,0,3.33-.72,3.33-2.49s-1.64-2.63-3.33-2.61Z" transform="translate(-13.1 -10.22)"/><path class="cls-2" d="M243.05,29.45c0,3.45-2.5,5.64-5.86,5.64s-5.86-2.19-5.86-5.65a5.48,5.48,0,0,1,5.84-5.62C241.27,23.82,243.05,26.61,243.05,29.45Zm-9.86-.4c0,2.49,1.31,5.66,4.19,5.66,2.64,0,3.81-2.69,3.81-5-.05-2.84-1.69-5.53-4.14-5.53C234.29,24.2,233.19,26.89,233.19,29.05Z" transform="translate(-13.1 -10.22)"/><path class="cls-2" d="M251.46,27.53v3.91h-.24c-.12-1.62-1-1.59-2.3-1.59h-1.75v2.42c0,1.71.08,2,2.31,2.39v.24h-5.7v-.24c1.92-.26,1.94-.74,2-2.39V26.64c-.05-1.65-.07-2.13-2-2.39V24h8.47L252,26.54h-.24c-.09-2.06-1.44-2.14-3.12-2.14h-1.46v4.78h1.75c1.34,0,2.18-.13,2.3-1.65Z" transform="translate(-13.1 -10.22)"/><path class="cls-2" d="M253.61,34.66c1.92-.26,1.93-.74,2-2.39V26.64c-.05-1.65-.06-2.13-2-2.39V24h8.59L262,26.48h-.24c-.11-2.07-1.6-2.08-3.22-2.08H257V29h1.67c1.2,0,2.11-.1,2.29-1.47h.24v3.57H261c-.21-1.41-1.09-1.43-2.29-1.43H257v2.63c0,.94-.22,2.25,2.4,2.25,2,0,3-.77,3.41-2.78h.24a10,10,0,0,1-.54,3.17h-8.9Z" transform="translate(-13.1 -10.22)"/><path class="cls-2" d="M270.9,26.83h-.25c-.26-1.3-.68-2.55-2.26-2.55a1.78,1.78,0,0,0-1.87,1.77c0,2.76,5,2.67,5,5.9,0,2.07-2.05,3.14-3.89,3.14a5.3,5.3,0,0,1-2.82-.82l-.46-2.72h.29c.4,1.54,1.47,3.06,3.23,3.06a1.93,1.93,0,0,0,2.11-2c0-2.85-4.89-2.6-4.89-5.8,0-1.87,1.85-3.06,3.56-3.06a4.88,4.88,0,0,1,2.34.63Z" transform="translate(-13.1 -10.22)"/><path class="cls-2" d="M279.47,26.83h-.25c-.26-1.3-.68-2.55-2.26-2.55a1.78,1.78,0,0,0-1.87,1.77c0,2.76,5,2.67,5,5.9,0,2.07-2.05,3.14-3.89,3.14a5.3,5.3,0,0,1-2.82-.82L273,31.55h.29c.4,1.54,1.47,3.06,3.23,3.06a1.92,1.92,0,0,0,2.11-2c0-2.85-4.89-2.6-4.89-5.8,0-1.87,1.85-3.06,3.56-3.06a4.88,4.88,0,0,1,2.34.63Z" transform="translate(-13.1 -10.22)"/><path class="cls-2" d="M284.72,32.27c0,1.65.07,2.13,2,2.39v.24h-5.38v-.24c1.92-.26,1.94-.74,2-2.39V26.64c0-1.65-.06-2.13-2-2.39V24h5.38v.24c-1.92.26-1.94.74-2,2.39Z" transform="translate(-13.1 -10.22)"/><path class="cls-2" d="M299.27,29.45c0,3.45-2.5,5.64-5.86,5.64s-5.86-2.19-5.86-5.65,2.5-5.62,5.85-5.62C297.49,23.82,299.27,26.61,299.27,29.45Zm-9.86-.4c0,2.49,1.31,5.66,4.19,5.66,2.65,0,3.81-2.69,3.81-5,0-2.84-1.69-5.53-4.14-5.53C290.51,24.2,289.41,26.89,289.41,29.05Z" transform="translate(-13.1 -10.22)"/><path class="cls-2" d="M310.43,32.38l-.08-5.84c0-1.52-.44-2-2.24-2.29V24h4.37v.24c-1.11.15-1.32.75-1.44,1.8a83.72,83.72,0,0,0-.07,9.1l-.21.05c-2.56-3-5.41-5.83-8.11-8.74v2.95c0,4-.1,4.78,2.22,5.25v.24h-4.78v-.24c2.16-.23,2.08-1.7,2.08-5.33v-2.4c0-1.6-.26-2.23-2.29-2.68V24h2.64Z" transform="translate(-13.1 -10.22)"/><path class="cls-2" d="M316,30.33a14.93,14.93,0,0,0-1,3.24c0,1,1.1,1,1.82,1.09v.24H312.5v-.24c1.42-.39,1.57-.71,2.06-2L316.37,28l1-2.61c.15-.41.35-.8.18-1.1a3.12,3.12,0,0,0,1.17-.87l3.52,9.38c.43,1.17.7,1.64,2,1.88v.24h-4.7v-.24c.56-.13,1.23-.31,1.23-1a14.92,14.92,0,0,0-1-3.3Zm1.77-4.89-1.5,4.16h3.17Z" transform="translate(-13.1 -10.22)"/><path class="cls-2" d="M325.07,34.66c1.92-.26,1.93-.74,2-2.39V26.64c-.05-1.65-.06-2.13-2-2.39V24h5.37v.24c-1.92.26-2,.74-2,2.39v5.25a8.1,8.1,0,0,0,.24,2.41l1.95.15c2.43.17,2.84-.58,4.07-2.63l.21.1-.92,3h-8.94Z" transform="translate(-13.1 -10.22)"/><path class="cls-2" d="M211.55,51.33a15.46,15.46,0,0,0-1,3.24c0,1,1.1,1,1.82,1.09v.24H208v-.24c1.43-.39,1.57-.71,2.07-2L211.89,49l1-2.61c.14-.41.35-.8.17-1.1a3,3,0,0,0,1.17-.87l3.52,9.38c.44,1.17.71,1.64,2,1.88v.24H215v-.24c.56-.13,1.24-.31,1.24-1a14.92,14.92,0,0,0-1-3.3Zm1.78-4.89-1.51,4.16H215Z" transform="translate(-13.1 -10.22)"/><path class="cls-2" d="M230.91,53.38l-.08-5.84c0-1.52-.44-2-2.24-2.29V45H233v.24c-1.11.15-1.32.75-1.44,1.8a83.72,83.72,0,0,0-.07,9.1l-.21.05c-2.56-3-5.41-5.83-8.11-8.74v2.95c0,4-.1,4.78,2.22,5.25v.24h-4.78v-.24c2.16-.23,2.08-1.7,2.08-5.33v-2.4c0-1.6-.26-2.23-2.29-2.68V45H223Z" transform="translate(-13.1 -10.22)"/><path class="cls-2" d="M234.23,45.11,238.1,45c7-.22,7.78,3.84,7.78,5.51,0,2.29-1.47,5.49-7,5.44l-4.77,0v-.24c1.92-.26,1.94-.74,2-2.39V47.72c-.05-1.65-.07-2.13-1.89-2.39Zm3.3,8.32c0,1.07.19,2.1,2.17,2.1s4.32-1.15,4.32-4.8c0-3.84-3-5.45-6.49-5.43Z" transform="translate(-13.1 -10.22)"/><path class="cls-2" d="M265.58,49.69c0,3.93-2.85,6.43-6.68,6.43s-6.68-2.5-6.68-6.45,2.85-6.4,6.66-6.4C263.55,43.27,265.58,46.44,265.58,49.69Zm-11.24-.45c0,2.82,1.49,6.44,4.78,6.44,3,0,4.34-3.07,4.34-5.68,0-3.23-1.93-6.29-4.72-6.29C255.6,43.71,254.34,46.77,254.34,49.24Z" transform="translate(-13.1 -10.22)"/><path class="cls-2" d="M277.09,53.38,277,47.54c0-1.52-.43-2-2.24-2.29V45h4.37v.24c-1.1.15-1.31.75-1.44,1.8a86.91,86.91,0,0,0-.06,9.1l-.21.05c-2.56-3-5.41-5.83-8.12-8.74v2.95c0,4-.09,4.78,2.23,5.25v.24h-4.79v-.24c2.16-.23,2.08-1.7,2.08-5.33v-2.4c0-1.6-.25-2.23-2.29-2.68V45h2.64Z" transform="translate(-13.1 -10.22)"/><path class="cls-2" d="M280.36,55.66c1.93-.26,1.94-.74,2-2.39V47.64c-.05-1.65-.06-2.13-2-2.39V45h5.38v.24c-1.92.26-2,.74-2,2.39v5.25A8.1,8.1,0,0,0,284,55.3l1.95.15c2.43.17,2.83-.58,4.07-2.63l.2.1-.91,3h-8.95Z" transform="translate(-13.1 -10.22)"/><path class="cls-2" d="M294.26,53.27c.05,1.65.07,2.13,2,2.39v.24h-5.38v-.24c1.92-.26,1.94-.74,2-2.39V47.64c-.05-1.65-.07-2.13-2-2.39V45h5.38v.24c-1.92.26-1.94.74-2,2.39Z" transform="translate(-13.1 -10.22)"/><path class="cls-2" d="M308,53.38l-.08-5.84c0-1.52-.43-2-2.24-2.29V45h4.37v.24c-1.1.15-1.31.75-1.44,1.8a83.72,83.72,0,0,0-.07,9.1l-.2.05c-2.56-3-5.41-5.83-8.12-8.74v2.95c0,4-.09,4.78,2.23,5.25v.24h-4.79v-.24c2.16-.23,2.08-1.7,2.08-5.33v-2.4c0-1.6-.25-2.23-2.29-2.68V45h2.64Z" transform="translate(-13.1 -10.22)"/><path class="cls-2" d="M311.27,55.66c1.92-.26,1.94-.74,2-2.39V47.64c-.05-1.65-.07-2.13-2-2.39V45h8.6l-.19,2.47h-.24c-.12-2.07-1.61-2.08-3.22-2.08h-1.55V50h1.66c1.2,0,2.11-.1,2.29-1.47h.24v3.57h-.24c-.21-1.41-1.09-1.43-2.29-1.43h-1.66v2.63c0,.94-.23,2.25,2.4,2.25,2,0,3-.77,3.41-2.78h.24a10.24,10.24,0,0,1-.55,3.17h-8.9Z" transform="translate(-13.1 -10.22)"/><path class="cls-2" d="M103.26,31.93l-.88,0c-.83-4.11-1.24-8.73-7.09-8.91-3.67-.11-7,2.22-6.87,5.76.22,8.49,17.06,6.25,16.8,18.42-.13,6-6.08,9.31-12.66,9.31a17.49,17.49,0,0,1-9.53-3l-1.27-8.13h1C84,50,87.36,54.84,93.32,54.85c3.85,0,7-2.05,7-5.64.23-11.07-16.17-8.13-16.56-17.86-.29-7.24,6.21-9.93,11.79-9.75a18.31,18.31,0,0,1,8.3,2.22Z" transform="translate(-13.1 -10.22)"/><path class="cls-2" d="M129.44,48.7l7.78-19.62c1.2-2.71,1.87-5.17.78-5.91l.1-.79h10.77v.74c-3.12.64-5,1.82-4.8,5.27l1.37,17.94c.59,6.86.42,7.94,5.67,8.83v.73H135v-.73c3.77-.6,6.16-1,5.88-5.38l-1.46-21.54h-.1L128,55.89h-.54L115.29,29.38h-.09s-.5,12.87-.75,20.65c-.07,1.92,0,4.14,5.91,5.13v.73H106.7v-.73c4.35-.74,5.12-3.36,5.43-6.85l1.19-13.75.49-6.81c.14-3.37-2.53-4.38-5.43-4.63v-.74H119l.05.54c-1.07,1.14.28,4.09.63,4.88Z" transform="translate(-13.1 -10.22)"/><path class="cls-2" d="M189.32,22.38v.74c-4.36.49-4.65,3.25-4.84,9.76l-.29,10.79c-.14,6.36-2.78,12.82-13.41,12.82-14.86,0-13.32-11-13.32-15v-11c-.15-5.07-.19-6.55-5.94-7.34v-.74H168v.74c-6.27.94-6.37,1.92-6.37,7.34V40.57c0,.93-1.53,13.65,11.6,13.65,10.35,0,9.34-10.15,9.34-16.17V32.88c0-6.26-.48-9.12-7.19-9.76v-.74Z" transform="translate(-13.1 -10.22)"/><path class="cls-2" d="M191.6,54a1.93,1.93,0,1,1-1.92-1.92A1.93,1.93,0,0,1,191.6,54Zm-.31,0a1.61,1.61,0,1,0-1.61,1.67A1.61,1.61,0,0,0,191.29,54Zm-2,1.15H189V52.83h.88c.51,0,.74.23.74.64a.62.62,0,0,1-.53.64l.64,1h-.35l-.62-1h-.45Zm.36-1.28c.3,0,.64,0,.64-.38s-.26-.37-.5-.37h-.5v.75Z" transform="translate(-13.1 -10.22)"/><path class="cls-3" d="M42,68A28.88,28.88,0,1,1,70.85,39.1,28.88,28.88,0,0,1,42,68h0" transform="translate(-13.1 -10.22)"/><path class="cls-2" d="M42,67A27.88,27.88,0,1,1,69.86,39.1,27.91,27.91,0,0,1,42,67Zm0-54.5A26.63,26.63,0,1,0,68.61,39.1,26.67,26.67,0,0,0,42,12.47Z" transform="translate(-13.1 -10.22)"/><polyline class="cls-2" points="15.78 24.77 15.78 40.93 42 40.93 42 24.77 15.78 24.77 15.78 24.77"/><polyline class="cls-3" points="18.96 40.52 18.96 25.45 16.67 25.45 16.67 40.52 18.96 40.52 18.96 40.52"/><polyline class="cls-3" points="21.09 40.52 21.09 25.45 23.39 25.45 23.39 40.52 21.09 40.52 21.09 40.52"/><polyline class="cls-3" points="25.52 40.52 25.52 25.45 27.82 25.45 27.82 40.52 25.52 40.52 25.52 40.52"/><polyline class="cls-3" points="29.95 40.52 29.95 25.45 32.24 25.45 32.24 40.52 29.95 40.52 29.95 40.52"/><polyline class="cls-3" points="34.37 40.52 34.37 25.45 36.67 25.45 36.67 40.52 34.37 40.52 34.37 40.52"/><polyline class="cls-3" points="38.8 40.52 38.8 25.45 41.1 25.45 41.1 40.52 38.8 40.52 38.8 40.52"/><polyline class="cls-3" points="16.13 24.37 16.13 16.43 41.64 16.43 41.64 24.37 16.13 24.37 16.13 24.37"/><path class="cls-2" d="M55.18,35H28.8V26.21H55.18Zm-25.51-.88H54.31V27.09H29.67Z" transform="translate(-13.1 -10.22)"/><polyline class="cls-3" points="28.88 24.69 42.66 24.69 42.66 23.54 28.88 17.17 15.11 23.54 15.11 24.69 28.88 24.69"/><path class="cls-2" d="M56.89,36H27.08V33L42,26.15,56.89,33Zm-26-2.25H53.12L42,28.63Z" transform="translate(-13.1 -10.22)"/><path class="cls-3" d="M56.07,35.22H27.9V33.56L42,27.05l14.09,6.51Zm-27.55-.63H55.45V34L42,27.74,28.52,34Z" transform="translate(-13.1 -10.22)"/><path class="cls-3" d="M42,18.06a12.52,12.52,0,0,0-11.88,8.58H53.88A12.53,12.53,0,0,0,42,18.06h0" transform="translate(-13.1 -10.22)"/><path class="cls-2" d="M54.48,27.08h-25l.19-.57a13,13,0,0,1,24.6,0Zm-23.75-.87H53.25a12.08,12.08,0,0,0-22.52,0Z" transform="translate(-13.1 -10.22)"/><polygon class="cls-2" points="31.96 8.02 31.08 8.02 31.08 6.79 28.88 6.22 26.68 6.79 26.68 8.02 25.8 8.02 25.8 6.12 28.88 5.31 31.96 6.12 31.96 8.02"/><polyline class="cls-2" points="11.73 45.83 11.73 44.21 46.04 44.21 46.04 45.83 11.73 45.83 11.73 45.83"/><path class="cls-2" d="M59.58,56.49H24.4V54H59.58Zm-34.31-.87H58.71v-.75H25.27Z" transform="translate(-13.1 -10.22)"/><polyline class="cls-2" points="13.39 44.21 13.39 42.58 44.39 42.58 44.39 44.21 13.39 44.21 13.39 44.21"/><path class="cls-2" d="M57.93,54.87H26.05v-2.5H57.93Zm-31-.88H57.05v-.75H26.93Z" transform="translate(-13.1 -10.22)"/><polyline class="cls-2" points="15.04 42.59 15.04 40.97 42.73 40.97 42.73 42.59 15.04 42.59 15.04 42.59"/><path class="cls-2" d="M56.28,53.25H27.7v-2.5H56.28Zm-27.7-.88H55.4v-.75H28.58Z" transform="translate(-13.1 -10.22)"/><polyline class="cls-3" points="12.21 45.41 12.21 44.49 45.57 44.49 45.57 45.41 12.21 45.41 12.21 45.41"/><polyline class="cls-3" points="13.88 43.94 13.88 43.01 43.9 43.01 43.9 43.94 13.88 43.94 13.88 43.94"/><polyline class="cls-3" points="42.25 42.41 42.25 41.49 15.53 41.49 15.53 42.41 42.25 42.41 42.25 42.41"/><polyline class="cls-3" points="28.88 18.32 40.87 23.79 16.88 23.79 28.88 18.32"/></g></svg>